<?xml version="1.0" encoding="UTF-8" standalone="no"?>
<!-- Created with Inkscape (http://www.inkscape.org/) -->

<svg
   width="5.999989mm"
   height="5.999989mm"
   viewBox="0 0 5.999989 5.999989"
   version="1.1"
   id="svg1"
   sodipodi:docname="favicon.svg"
   inkscape:version="1.3.2 (091e20ef0f, 2023-11-25, custom)"
   xmlns:inkscape="http://www.inkscape.org/namespaces/inkscape"
   xmlns:sodipodi="http://sodipodi.sourceforge.net/DTD/sodipodi-0.dtd"
   xmlns="http://www.w3.org/2000/svg"
   xmlns:svg="http://www.w3.org/2000/svg">
  <sodipodi:namedview
     id="namedview1"
     pagecolor="#ffffff"
     bordercolor="#000000"
     borderopacity="0.25"
     inkscape:showpageshadow="2"
     inkscape:pageopacity="0.0"
     inkscape:pagecheckerboard="0"
     inkscape:deskcolor="#d1d1d1"
     inkscape:document-units="mm"
     inkscape:zoom="17.484581"
     inkscape:cx="1.8873773"
     inkscape:cy="10.323382"
     inkscape:window-width="2560"
     inkscape:window-height="1011"
     inkscape:window-x="0"
     inkscape:window-y="0"
     inkscape:window-maximized="1"
     inkscape:current-layer="layer1" />
  <defs
     id="defs1" />
  <g
     id="layer1"
     transform="translate(-182.89344,-135.52142)"
     inkscape:export-filename="favicon_large.png"
     inkscape:export-xdpi="2167.4666"
     inkscape:export-ydpi="2167.4666">
    <rect
       style="fill:#343434;fill-opacity:1;stroke-width:0.180557;paint-order:stroke fill markers"
       id="rect1"
       width="6"
       height="6"
       x="182.89343"
       y="135.52142"
       ry="0.42881146" />
    <g
       id="g1"
       transform="translate(5.3468426,-0.91909414)"
       style="fill:#ffffff;fill-opacity:1;stroke:#ffffff;stroke-width:0.05;stroke-dasharray:none;stroke-dashoffset:0;stroke-opacity:1">
      <path
         id="path10-8"
         style="fill:#ffffff;fill-opacity:1;stroke:#ffffff;stroke-width:0.05;stroke-dasharray:none;stroke-dashoffset:0;stroke-opacity:1;paint-order:stroke fill markers"
         d="m 179.92156,139.06556 v 0.12506 0.74982 h -0.56224 v 0.12506 h 0.56224 v 0.74982 0.12506 h 0.99994 c 0.51767,-5e-5 0.93732,-0.4197 0.93741,-0.93741 -9e-5,-0.51771 -0.41974,-0.93736 -0.93741,-0.93741 z m 0.12506,0.12506 h 0.12506 v 0.74982 h -0.12506 z m 0.25011,0 h 0.62477 c 0.44861,5e-5 0.81227,0.36371 0.81236,0.81235 -9e-5,0.44864 -0.36375,0.8123 -0.81236,0.81235 h -0.62477 v -0.74982 h 0.87489 v -0.12506 h -0.87489 z m -0.25011,0.87488 h 0.12506 v 0.74982 h -0.12506 z" />
      <path
         id="rect31-6-8-57-7-7-5-2-9-7-7-8"
         style="fill:#ffffff;fill-opacity:1;stroke:#ffffff;stroke-width:0.05;stroke-dasharray:none;stroke-dashoffset:0;stroke-opacity:1;paint-order:stroke fill markers"
         d="m 179.04668,138.19068 v 0.12506 h 0.87488 v 0.37465 h -0.87488 v 0.12506 h 2.99982 v -0.12506 h -1.99988 v -0.37465 h 0.92811 l -0.1018,0.37413 h 0.13125 l 0.10026,-0.37413 h 0.94206 v -0.12506 h -0.90847 -0.12919 z" />
      <path
         id="rect31-6-8-57-7-7-5-2-9-7-7-8-3"
         style="fill:#ffffff;fill-opacity:1;stroke:#ffffff;stroke-width:0.05;stroke-dasharray:none;stroke-dashoffset:0;stroke-opacity:1;paint-order:stroke fill markers"
         d="m 180.17157,137.94082 1.03351,-1.6e-4 -0.0335,0.12506 -1.00001,1.6e-4 z" />
      <ellipse
         style="fill:#ffffff;fill-opacity:1;stroke:#ffffff;stroke-width:0.05;stroke-dasharray:none;stroke-dashoffset:0;stroke-opacity:1;paint-order:stroke fill markers"
         id="path32"
         cx="181.35907"
         cy="140.00296"
         rx="0.0625"
         ry="0.062605217" />
      <ellipse
         style="fill:#ffffff;fill-opacity:1;stroke:#ffffff;stroke-width:0.05;stroke-dasharray:none;stroke-dashoffset:0;stroke-opacity:1;paint-order:stroke fill markers"
         id="path32-5"
         cx="179.98407"
         cy="138.00334"
         rx="0.0625"
         ry="0.062605217" />
    </g>
  </g>
</svg>
