<?xml version="1.0" encoding="UTF-8" standalone="no"?>
<!-- Created with Inkscape (http://www.inkscape.org/) -->

<svg
   width="22.016123mm"
   height="2.999825mm"
   viewBox="0 0 22.016123 2.999825"
   version="1.1"
   id="svg1"
   sodipodi:docname="otomadb_en.svg"
   inkscape:version="1.3.2 (091e20ef0f, 2023-11-25, custom)"
   xmlns:inkscape="http://www.inkscape.org/namespaces/inkscape"
   xmlns:sodipodi="http://sodipodi.sourceforge.net/DTD/sodipodi-0.dtd"
   xmlns="http://www.w3.org/2000/svg"
   xmlns:svg="http://www.w3.org/2000/svg">
  <sodipodi:namedview
     id="namedview1"
     pagecolor="#ffffff"
     bordercolor="#000000"
     borderopacity="0.25"
     inkscape:showpageshadow="2"
     inkscape:pageopacity="0.0"
     inkscape:pagecheckerboard="0"
     inkscape:deskcolor="#d1d1d1"
     inkscape:document-units="mm"
     inkscape:zoom="10.888043"
     inkscape:cx="23.695718"
     inkscape:cy="22.272138"
     inkscape:window-width="2560"
     inkscape:window-height="1011"
     inkscape:window-x="0"
     inkscape:window-y="0"
     inkscape:window-maximized="1"
     inkscape:current-layer="g1" />
  <defs
     id="defs1" />
  <g
     id="layer1"
     transform="translate(-106.63544,-50.738497)">
    <g
       id="g77">
      <path
         id="rect31"
         style="fill-opacity:0.983188;stroke-width:0.136;paint-order:stroke fill markers"
         d="M 109.95746 50.738497 L 109.95746 50.863554 L 111.28865 50.863554 L 111.28865 50.988611 L 109.95746 50.988611 L 109.95746 51.113668 L 111.28865 51.113668 L 111.28865 53.738314 L 111.4137 53.738314 L 111.4137 51.113668 L 112.74489 51.113668 L 112.74489 50.988611 L 111.4137 50.988611 L 111.4137 50.863554 L 112.74489 50.863554 L 112.74489 50.738497 L 109.95746 50.738497 z "
         transform="translate(-0.16097402)"
         inkscape:label="T" />
      <path
         id="path21-7"
         style="fill:#000000;fill-opacity:0.983188;stroke:none;stroke-width:0.0385153;paint-order:stroke fill markers"
         d="M 114.13834 50.742114 A 1.5 1.5 0 0 0 113.18439 51.177747 A 1.5 1.5 0 0 0 113.18439 53.299064 A 1.5 1.5 0 0 0 115.30571 53.299064 A 1.5 1.5 0 0 0 115.30571 51.177747 A 1.5 1.5 0 0 0 114.13834 50.742114 z M 114.27683 50.863554 A 1.375 1.375 0 0 1 115.21786 51.266113 A 1.375 1.375 0 0 1 115.26075 53.165222 L 113.31824 51.222705 A 1.375 1.375 0 0 1 114.27683 50.863554 z M 113.23245 51.314172 L 115.1698 53.251522 A 1.375 1.375 0 0 1 113.27276 53.210698 A 1.375 1.375 0 0 1 113.23245 51.314172 z "
         inkscape:label="O2" />
      <path
         id="rect31-6-8-5"
         style="fill:#000000;fill-opacity:0.983188;stroke:none;stroke-width:0.128345;paint-order:stroke fill markers"
         d="m 116.25647,50.738505 v 2.999817 h 0.12506 2.3735 0.12505 v -2.999817 h -0.12505 l -1.18701,2.124418 -1.18649,-2.124418 z m 0.12506,0.256315 1.11517,1.996261 0.0718,0.128157 0.0713,-0.128157 1.11518,-1.996261 v 2.618445 h -2.3735 z"
         inkscape:label="M" />
      <path
         id="rect31-4-22"
         style="fill:#000000;fill-opacity:0.983188;stroke:none;stroke-width:0.141077;paint-order:stroke fill markers"
         d="m 126.06929,50.738508 v 10e-4 0.125057 1.311031 0.125057 1.312581 0.125057 h 0.12506 1.67638 v -0.0015 c 0.43107,8.4e-5 0.78063,-0.349244 0.78083,-0.780314 6e-5,-0.322469 -0.19497,-0.599181 -0.47387,-0.718303 0.27848,-0.119167 0.47372,-0.395707 0.47387,-0.717786 8e-5,-0.431275 -0.34956,-0.780914 -0.78083,-0.78083 h -1.67638 v -0.001 z m 0.12506,0.126091 h 1.67638 c 0.36221,-8.8e-5 0.65586,0.293564 0.65577,0.655773 -2e-4,0.362005 -0.29377,0.655346 -0.65577,0.655258 h -1.67638 z m 0,1.436088 h 1.67638 c 0.36221,-8.8e-5 0.65586,0.293564 0.65577,0.655774 -2e-4,0.362004 -0.29377,0.655345 -0.65577,0.655257 v 0.0016 h -1.67638 z"
         inkscape:label="B" />
      <path
         id="rect31-4-2-7-9"
         style="fill:#000000;fill-opacity:0.983188;stroke:none;stroke-width:0.135053;paint-order:stroke fill markers"
         d="m 119.39172,50.738505 v 0.125057 l 0.6873,1.437122 0.6873,1.437638 0.68678,-1.437638 0.68729,-1.437122 v -0.125057 z m 0.12506,0.125057 h 2.49752 l -0.62735,1.312065 h -1.2423 z m 0.68781,1.437122 h 1.12242 l -0.56069,1.173055 z"
         inkscape:label="A" />
      <g
         id="g75"
         transform="translate(-0.22210076)"
         inkscape:label="D">
        <path
           id="path21-1"
           style="fill:#000000;fill-opacity:0.983188;stroke:none;stroke-width:0.0385153;paint-order:stroke fill markers"
           d="m 123.10472,50.738505 v 2.999817 h 0.12506 1.02578 c 0.82815,-1.93e-4 1.49946,-0.671497 1.49965,-1.49965 9e-5,-0.828355 -0.67129,-1.499974 -1.49965,-1.500167 h -1.02578 z m 0.12506,0.125057 h 1.02578 c 0.75948,-6.1e-5 1.37517,0.615634 1.37511,1.37511 6e-5,0.759476 -0.61563,1.375171 -1.37511,1.37511 h -1.02578 z" />
        <path
           id="rect31-4-2-7-0-2-8"
           style="fill-opacity:0.983188;stroke-width:0.141077;paint-order:stroke fill markers"
           transform="rotate(90)"
           d="m 50.738499,-122.97957 h 2.999811 v 0.12506 h -2.999811 z" />
      </g>
      <g
         id="g1"
         inkscape:label="O1">
        <path
           id="path21"
           style="fill:#000000;fill-opacity:0.983188;stroke:none;stroke-width:0.0385153;paint-order:stroke fill markers"
           d="m 108.13561,50.738503 a 1.5,1.5 0 0 0 -1.50017,1.500167 1.5,1.5 0 0 0 1.50017,1.49965 1.5,1.5 0 0 0 1.49965,-1.49965 1.5,1.5 0 0 0 -1.49965,-1.500167 z m 0,0.125057 a 1.375,1.375 0 0 1 1.37511,1.37511 1.375,1.375 0 0 1 -1.37511,1.37511 1.375,1.375 0 0 1 -1.37511,-1.37511 1.375,1.375 0 0 1 1.37511,-1.37511 z"
           inkscape:label="O1" />
        <path
           id="path49"
           style="fill-opacity:0.983188;stroke-width:0.161573;paint-order:stroke fill markers"
           d="m 108.26035,52.238411 a 0.125,0.125 0 0 1 -0.125,0.125 0.125,0.125 0 0 1 -0.125,-0.125 0.125,0.125 0 0 1 0.125,-0.125 0.125,0.125 0 0 1 0.125,0.125 z"
           inkscape:label="path49" />
      </g>
    </g>
  </g>
</svg>
